<svg width="42" height="38" viewBox="0 0 42 38" fill="none" xmlns="http://www.w3.org/2000/svg">
<path d="M17.64 2.28C9.76172 2.28 3.36 8.07203 3.36 15.2C3.36 22.328 9.76172 28.12 17.64 28.12C20.7572 28.12 23.6381 27.2116 25.9875 25.6738L37.0388 35.6488L39.4013 33.5113L28.4813 23.6075C30.6272 21.3453 31.92 18.4092 31.92 15.2C31.92 8.07203 25.5183 2.28 17.64 2.28ZM17.64 3.8C24.6094 3.8 30.24 8.89437 30.24 15.2C30.24 21.5056 24.6094 26.6 17.64 26.6C10.6706 26.6 5.04 21.5056 5.04 15.2C5.04 8.89437 10.6706 3.8 17.64 3.8Z" fill="white"/>
</svg>
